# xmcd CD database file
#
# Track frame offsets:
#	183
#	32098
#	58950
#	85718
#	114505
#	135650
#	155715
#	182395
#	208198
#	237968
#	253653
#	274708
#
# Disc length: 3866 seconds
#
# Revision: 0
# Processed by: cddbd v1.4PL0 Copyright (c) Steve Scherf et al.
# Submitted via: CDex 1.50beta9
#
DISCID=a70f180c
DTITLE=Big Super Artist - jass TRUMPET
DYEAR=1995
DGENRE=Jazz
TTITLE0=Candy/Lee Morgan
TTITLE1=Round Midnight/Miles Davis
TTITLE2=Like someone in love/Art Farmer
TTITLE3=Ceora/Lee Morgan
TTITLE4=In orbit/Clark Terry
TTITLE5=When I fall in love/Miles Davis
TTITLE6=I'll close my eyes/Blue mitchell
TTITLE7=Cherokee/Clifford Brown
TTITLE8=You are my everything/Freddie Hubbard
TTITLE9=Laura/Clifford Brown
TTITLE10=Lotus Blossom/Kenny Dorham
TTITLE11=La vie en rose/Louis Armstrong
EXTD=YEAR: 1995
EXTT0=
EXTT1=
EXTT2=
EXTT3=
EXTT4=
EXTT5=
EXTT6=
EXTT7=
EXTT8=
EXTT9=
EXTT10=
EXTT11=
PLAYORDER=
